<svg width="160" height="160" viewBox="0 0 160 160" fill="none" xmlns="http://www.w3.org/2000/svg">
<path d="M160 80.0294C160 85.502 159.47 90.8569 158.411 96.0353C155.998 107.863 150.997 118.75 143.994 128.047C139.463 134.108 134.049 139.522 127.988 144.053C119.691 150.291 110.158 154.939 99.8013 157.587C102.449 153.762 103.979 149.055 103.979 144.053C103.979 137.933 101.684 132.284 97.8594 128.047C97.271 127.4 96.6237 126.752 95.9764 126.164C95.741 125.987 95.5056 125.752 95.2703 125.576C95.5056 125.517 95.741 125.399 95.9764 125.34C109.628 120.515 120.456 109.687 125.222 96.0942C126.988 91.0923 127.929 85.6786 127.929 80.0883C127.929 74.498 126.988 69.0842 125.222 64.0824C120.397 50.4303 109.57 39.6028 95.9764 34.8363C90.9746 33.071 85.5608 32.1295 79.9705 32.1295H59.9632C51.1364 32.1295 43.9573 24.9503 43.9573 16.1236C43.9573 12.8871 44.8988 9.94483 46.5465 7.41449C47.1349 6.47297 47.8411 5.59029 48.6649 4.8253C51.6071 1.76535 55.6086 0 60.022 0H80.0294C85.502 0 90.8569 0.529607 96.0352 1.58882C107.863 4.00147 118.749 9.00331 128.047 16.0059C134.108 20.537 139.522 25.9507 144.053 32.0118C151.055 41.3093 156.057 52.1957 158.47 64.0235C159.47 69.2019 160 74.5568 160 80.0294Z" fill="url(#paint0_linear)"/>
<path d="M96.0353 143.994C96.0353 152.821 88.8562 160 80.0294 160H0V32.0118C0 14.3582 14.3582 0 32.0118 0V128.047H80.0294C88.8562 128.047 96.0353 135.167 96.0353 143.994Z" fill="#301770"/>
<defs>
<linearGradient id="paint0_linear" x1="127.247" y1="147.241" x2="92.6983" y2="6.05222" gradientUnits="userSpaceOnUse">
<stop stop-color="#301770"/>
<stop offset="0.4233" stop-color="#8C37AD"/>
<stop offset="0.5451" stop-color="#9732A2"/>
<stop offset="0.758" stop-color="#B42486"/>
<stop offset="1" stop-color="#DC105F"/>
</linearGradient>
</defs>
</svg>
