<svg width="725" height="881" viewBox="0 0 725 881" fill="none" xmlns="http://www.w3.org/2000/svg">
<path d="M722.5 5C723.881 5 725 3.88071 725 2.5C725 1.11929 723.881 0 722.5 0C721.119 0 720 1.11929 720 2.5C720 3.88071 721.119 5 722.5 5Z" fill="#2E3B67"/>
<path d="M722.5 78C723.881 78 725 76.8807 725 75.5C725 74.1193 723.881 73 722.5 73C721.119 73 720 74.1193 720 75.5C720 76.8807 721.119 78 722.5 78Z" fill="#2E3B67"/>
<path d="M722.5 151C723.881 151 725 149.881 725 148.5C725 147.119 723.881 146 722.5 146C721.119 146 720 147.119 720 148.5C720 149.881 721.119 151 722.5 151Z" fill="#2E3B67"/>
<path d="M2.5 5C3.88071 5 5 3.88071 5 2.5C5 1.11929 3.88071 0 2.5 0C1.11929 0 0 1.11929 0 2.5C0 3.88071 1.11929 5 2.5 5Z" fill="#DC105F"/>
<path d="M82.5 5C83.8807 5 85 3.88071 85 2.5C85 1.11929 83.8807 0 82.5 0C81.1193 0 80 1.11929 80 2.5C80 3.88071 81.1193 5 82.5 5Z" fill="#DC105F"/>
<path d="M162.5 5C163.881 5 165 3.88071 165 2.5C165 1.11929 163.881 0 162.5 0C161.119 0 160 1.11929 160 2.5C160 3.88071 161.119 5 162.5 5Z" fill="#DC105F"/>
<path d="M242.5 5C243.881 5 245 3.88071 245 2.5C245 1.11929 243.881 0 242.5 0C241.119 0 240 1.11929 240 2.5C240 3.88071 241.119 5 242.5 5Z" fill="#DC105F"/>
<path d="M2.5 78C3.88071 78 5 76.8807 5 75.5C5 74.1193 3.88071 73 2.5 73C1.11929 73 0 74.1193 0 75.5C0 76.8807 1.11929 78 2.5 78Z" fill="#DC105F"/>
<path d="M82.5 78C83.8807 78 85 76.8807 85 75.5C85 74.1193 83.8807 73 82.5 73C81.1193 73 80 74.1193 80 75.5C80 76.8807 81.1193 78 82.5 78Z" fill="#DC105F"/>
<path d="M162.5 78C163.881 78 165 76.8807 165 75.5C165 74.1193 163.881 73 162.5 73C161.119 73 160 74.1193 160 75.5C160 76.8807 161.119 78 162.5 78Z" fill="#DC105F"/>
<path d="M242.5 78C243.881 78 245 76.8807 245 75.5C245 74.1193 243.881 73 242.5 73C241.119 73 240 74.1193 240 75.5C240 76.8807 241.119 78 242.5 78Z" fill="#DC105F"/>
<path d="M2.5 151C3.88071 151 5 149.881 5 148.5C5 147.119 3.88071 146 2.5 146C1.11929 146 0 147.119 0 148.5C0 149.881 1.11929 151 2.5 151Z" fill="#DC105F"/>
<path d="M82.5 151C83.8807 151 85 149.881 85 148.5C85 147.119 83.8807 146 82.5 146C81.1193 146 80 147.119 80 148.5C80 149.881 81.1193 151 82.5 151Z" fill="#DC105F"/>
<path d="M162.5 151C163.881 151 165 149.881 165 148.5C165 147.119 163.881 146 162.5 146C161.119 146 160 147.119 160 148.5C160 149.881 161.119 151 162.5 151Z" fill="#DC105F"/>
<path d="M242.5 151C243.881 151 245 149.881 245 148.5C245 147.119 243.881 146 242.5 146C241.119 146 240 147.119 240 148.5C240 149.881 241.119 151 242.5 151Z" fill="#DC105F"/>
<path d="M2.5 224C3.88071 224 5 222.881 5 221.5C5 220.119 3.88071 219 2.5 219C1.11929 219 0 220.119 0 221.5C0 222.881 1.11929 224 2.5 224Z" fill="#DC105F"/>
<path d="M82.5 224C83.8807 224 85 222.881 85 221.5C85 220.119 83.8807 219 82.5 219C81.1193 219 80 220.119 80 221.5C80 222.881 81.1193 224 82.5 224Z" fill="#DC105F"/>
<path d="M162.5 224C163.881 224 165 222.881 165 221.5C165 220.119 163.881 219 162.5 219C161.119 219 160 220.119 160 221.5C160 222.881 161.119 224 162.5 224Z" fill="#DC105F"/>
<path d="M242.5 224C243.881 224 245 222.881 245 221.5C245 220.119 243.881 219 242.5 219C241.119 219 240 220.119 240 221.5C240 222.881 241.119 224 242.5 224Z" fill="#DC105F"/>
<path d="M722.5 224C723.881 224 725 222.881 725 221.5C725 220.119 723.881 219 722.5 219C721.119 219 720 220.119 720 221.5C720 222.881 721.119 224 722.5 224Z" fill="#2E3B67"/>
<path d="M722.5 297C723.881 297 725 295.881 725 294.5C725 293.119 723.881 292 722.5 292C721.119 292 720 293.119 720 294.5C720 295.881 721.119 297 722.5 297Z" fill="#2E3B67"/>
<path d="M722.5 370C723.881 370 725 368.881 725 367.5C725 366.119 723.881 365 722.5 365C721.119 365 720 366.119 720 367.5C720 368.881 721.119 370 722.5 370Z" fill="#2E3B67"/>
<path d="M322.5 5C323.881 5 325 3.88071 325 2.5C325 1.11929 323.881 0 322.5 0C321.119 0 320 1.11929 320 2.5C320 3.88071 321.119 5 322.5 5Z" fill="#B10BDE"/>
<path d="M402.5 5C403.881 5 405 3.88071 405 2.5C405 1.11929 403.881 0 402.5 0C401.119 0 400 1.11929 400 2.5C400 3.88071 401.119 5 402.5 5Z" fill="#B10BDE"/>
<path d="M482.5 5C483.881 5 485 3.88071 485 2.5C485 1.11929 483.881 0 482.5 0C481.119 0 480 1.11929 480 2.5C480 3.88071 481.119 5 482.5 5Z" fill="#B10BDE"/>
<path d="M322.5 78C323.881 78 325 76.8807 325 75.5C325 74.1193 323.881 73 322.5 73C321.119 73 320 74.1193 320 75.5C320 76.8807 321.119 78 322.5 78Z" fill="#B10BDE"/>
<path d="M402.5 78C403.881 78 405 76.8807 405 75.5C405 74.1193 403.881 73 402.5 73C401.119 73 400 74.1193 400 75.5C400 76.8807 401.119 78 402.5 78Z" fill="#B10BDE"/>
<path d="M482.5 78C483.881 78 485 76.8807 485 75.5C485 74.1193 483.881 73 482.5 73C481.119 73 480 74.1193 480 75.5C480 76.8807 481.119 78 482.5 78Z" fill="#B10BDE"/>
<path d="M322.5 151C323.881 151 325 149.881 325 148.5C325 147.119 323.881 146 322.5 146C321.119 146 320 147.119 320 148.5C320 149.881 321.119 151 322.5 151Z" fill="#B10BDE"/>
<path d="M402.5 151C403.881 151 405 149.881 405 148.5C405 147.119 403.881 146 402.5 146C401.119 146 400 147.119 400 148.5C400 149.881 401.119 151 402.5 151Z" fill="#B10BDE"/>
<path d="M482.5 151C483.881 151 485 149.881 485 148.5C485 147.119 483.881 146 482.5 146C481.119 146 480 147.119 480 148.5C480 149.881 481.119 151 482.5 151Z" fill="#B10BDE"/>
<path d="M322.5 224C323.881 224 325 222.881 325 221.5C325 220.119 323.881 219 322.5 219C321.119 219 320 220.119 320 221.5C320 222.881 321.119 224 322.5 224Z" fill="#B10BDE"/>
<path d="M402.5 224C403.881 224 405 222.881 405 221.5C405 220.119 403.881 219 402.5 219C401.119 219 400 220.119 400 221.5C400 222.881 401.119 224 402.5 224Z" fill="#B10BDE"/>
<path d="M482.5 224C483.881 224 485 222.881 485 221.5C485 220.119 483.881 219 482.5 219C481.119 219 480 220.119 480 221.5C480 222.881 481.119 224 482.5 224Z" fill="#B10BDE"/>
<path d="M2.5 297C3.88071 297 5 295.881 5 294.5C5 293.119 3.88071 292 2.5 292C1.11929 292 0 293.119 0 294.5C0 295.881 1.11929 297 2.5 297Z" fill="#B10BDE"/>
<path d="M82.5 297C83.8807 297 85 295.881 85 294.5C85 293.119 83.8807 292 82.5 292C81.1193 292 80 293.119 80 294.5C80 295.881 81.1193 297 82.5 297Z" fill="#B10BDE"/>
<path d="M162.5 297C163.881 297 165 295.881 165 294.5C165 293.119 163.881 292 162.5 292C161.119 292 160 293.119 160 294.5C160 295.881 161.119 297 162.5 297Z" fill="#B10BDE"/>
<path d="M242.5 297C243.881 297 245 295.881 245 294.5C245 293.119 243.881 292 242.5 292C241.119 292 240 293.119 240 294.5C240 295.881 241.119 297 242.5 297Z" fill="#B10BDE"/>
<path d="M322.5 297C323.881 297 325 295.881 325 294.5C325 293.119 323.881 292 322.5 292C321.119 292 320 293.119 320 294.5C320 295.881 321.119 297 322.5 297Z" fill="#B10BDE"/>
<path d="M402.5 297C403.881 297 405 295.881 405 294.5C405 293.119 403.881 292 402.5 292C401.119 292 400 293.119 400 294.5C400 295.881 401.119 297 402.5 297Z" fill="#B10BDE"/>
<path d="M482.5 297C483.881 297 485 295.881 485 294.5C485 293.119 483.881 292 482.5 292C481.119 292 480 293.119 480 294.5C480 295.881 481.119 297 482.5 297Z" fill="#B10BDE"/>
<path d="M2.5 370C3.88071 370 5 368.881 5 367.5C5 366.119 3.88071 365 2.5 365C1.11929 365 0 366.119 0 367.5C0 368.881 1.11929 370 2.5 370Z" fill="#B10BDE"/>
<path d="M82.5 370C83.8807 370 85 368.881 85 367.5C85 366.119 83.8807 365 82.5 365C81.1193 365 80 366.119 80 367.5C80 368.881 81.1193 370 82.5 370Z" fill="#B10BDE"/>
<path d="M162.5 370C163.881 370 165 368.881 165 367.5C165 366.119 163.881 365 162.5 365C161.119 365 160 366.119 160 367.5C160 368.881 161.119 370 162.5 370Z" fill="#B10BDE"/>
<path d="M242.5 370C243.881 370 245 368.881 245 367.5C245 366.119 243.881 365 242.5 365C241.119 365 240 366.119 240 367.5C240 368.881 241.119 370 242.5 370Z" fill="#B10BDE"/>
<path d="M322.5 370C323.881 370 325 368.881 325 367.5C325 366.119 323.881 365 322.5 365C321.119 365 320 366.119 320 367.5C320 368.881 321.119 370 322.5 370Z" fill="#B10BDE"/>
<path d="M402.5 370C403.881 370 405 368.881 405 367.5C405 366.119 403.881 365 402.5 365C401.119 365 400 366.119 400 367.5C400 368.881 401.119 370 402.5 370Z" fill="#B10BDE"/>
<path d="M482.5 370C483.881 370 485 368.881 485 367.5C485 366.119 483.881 365 482.5 365C481.119 365 480 366.119 480 367.5C480 368.881 481.119 370 482.5 370Z" fill="#B10BDE"/>
<path d="M2.5 443C3.88071 443 5 441.881 5 440.5C5 439.119 3.88071 438 2.5 438C1.11929 438 0 439.119 0 440.5C0 441.881 1.11929 443 2.5 443Z" fill="#B10BDE"/>
<path d="M82.5 443C83.8807 443 85 441.881 85 440.5C85 439.119 83.8807 438 82.5 438C81.1193 438 80 439.119 80 440.5C80 441.881 81.1193 443 82.5 443Z" fill="#B10BDE"/>
<path d="M162.5 443C163.881 443 165 441.881 165 440.5C165 439.119 163.881 438 162.5 438C161.119 438 160 439.119 160 440.5C160 441.881 161.119 443 162.5 443Z" fill="#B10BDE"/>
<path d="M242.5 443C243.881 443 245 441.881 245 440.5C245 439.119 243.881 438 242.5 438C241.119 438 240 439.119 240 440.5C240 441.881 241.119 443 242.5 443Z" fill="#B10BDE"/>
<path d="M322.5 443C323.881 443 325 441.881 325 440.5C325 439.119 323.881 438 322.5 438C321.119 438 320 439.119 320 440.5C320 441.881 321.119 443 322.5 443Z" fill="#B10BDE"/>
<path d="M402.5 443C403.881 443 405 441.881 405 440.5C405 439.119 403.881 438 402.5 438C401.119 438 400 439.119 400 440.5C400 441.881 401.119 443 402.5 443Z" fill="#B10BDE"/>
<path d="M482.5 443C483.881 443 485 441.881 485 440.5C485 439.119 483.881 438 482.5 438C481.119 438 480 439.119 480 440.5C480 441.881 481.119 443 482.5 443Z" fill="#B10BDE"/>
<path d="M722.5 443C723.881 443 725 441.881 725 440.5C725 439.119 723.881 438 722.5 438C721.119 438 720 439.119 720 440.5C720 441.881 721.119 443 722.5 443Z" fill="#2E3B67"/>
<path d="M722.5 516C723.881 516 725 514.881 725 513.5C725 512.119 723.881 511 722.5 511C721.119 511 720 512.119 720 513.5C720 514.881 721.119 516 722.5 516Z" fill="#2E3B67"/>
<path d="M722.5 589C723.881 589 725 587.881 725 586.5C725 585.119 723.881 584 722.5 584C721.119 584 720 585.119 720 586.5C720 587.881 721.119 589 722.5 589Z" fill="#2E3B67"/>
<path d="M722.5 662C723.881 662 725 660.881 725 659.5C725 658.119 723.881 657 722.5 657C721.119 657 720 658.119 720 659.5C720 660.881 721.119 662 722.5 662Z" fill="#2E3B67"/>
<path d="M562.5 5C563.881 5 565 3.88071 565 2.5C565 1.11929 563.881 0 562.5 0C561.119 0 560 1.11929 560 2.5C560 3.88071 561.119 5 562.5 5Z" fill="#5353E6"/>
<path d="M642.5 5C643.881 5 645 3.88071 645 2.5C645 1.11929 643.881 0 642.5 0C641.119 0 640 1.11929 640 2.5C640 3.88071 641.119 5 642.5 5Z" fill="#5353E6"/>
<path d="M562.5 78C563.881 78 565 76.8807 565 75.5C565 74.1193 563.881 73 562.5 73C561.119 73 560 74.1193 560 75.5C560 76.8807 561.119 78 562.5 78Z" fill="#5353E6"/>
<path d="M642.5 78C643.881 78 645 76.8807 645 75.5C645 74.1193 643.881 73 642.5 73C641.119 73 640 74.1193 640 75.5C640 76.8807 641.119 78 642.5 78Z" fill="#5353E6"/>
<path d="M562.5 151C563.881 151 565 149.881 565 148.5C565 147.119 563.881 146 562.5 146C561.119 146 560 147.119 560 148.5C560 149.881 561.119 151 562.5 151Z" fill="#5353E6"/>
<path d="M642.5 151C643.881 151 645 149.881 645 148.5C645 147.119 643.881 146 642.5 146C641.119 146 640 147.119 640 148.5C640 149.881 641.119 151 642.5 151Z" fill="#5353E6"/>
<path d="M562.5 224C563.881 224 565 222.881 565 221.5C565 220.119 563.881 219 562.5 219C561.119 219 560 220.119 560 221.5C560 222.881 561.119 224 562.5 224Z" fill="#5353E6"/>
<path d="M642.5 224C643.881 224 645 222.881 645 221.5C645 220.119 643.881 219 642.5 219C641.119 219 640 220.119 640 221.5C640 222.881 641.119 224 642.5 224Z" fill="#5353E6"/>
<path d="M562.5 297C563.881 297 565 295.881 565 294.5C565 293.119 563.881 292 562.5 292C561.119 292 560 293.119 560 294.5C560 295.881 561.119 297 562.5 297Z" fill="#5353E6"/>
<path d="M642.5 297C643.881 297 645 295.881 645 294.5C645 293.119 643.881 292 642.5 292C641.119 292 640 293.119 640 294.5C640 295.881 641.119 297 642.5 297Z" fill="#5353E6"/>
<path d="M562.5 370C563.881 370 565 368.881 565 367.5C565 366.119 563.881 365 562.5 365C561.119 365 560 366.119 560 367.5C560 368.881 561.119 370 562.5 370Z" fill="#5353E6"/>
<path d="M642.5 370C643.881 370 645 368.881 645 367.5C645 366.119 643.881 365 642.5 365C641.119 365 640 366.119 640 367.5C640 368.881 641.119 370 642.5 370Z" fill="#5353E6"/>
<path d="M562.5 443C563.881 443 565 441.881 565 440.5C565 439.119 563.881 438 562.5 438C561.119 438 560 439.119 560 440.5C560 441.881 561.119 443 562.5 443Z" fill="#5353E6"/>
<path d="M642.5 443C643.881 443 645 441.881 645 440.5C645 439.119 643.881 438 642.5 438C641.119 438 640 439.119 640 440.5C640 441.881 641.119 443 642.5 443Z" fill="#5353E6"/>
<path d="M2.5 516C3.88071 516 5 514.881 5 513.5C5 512.119 3.88071 511 2.5 511C1.11929 511 0 512.119 0 513.5C0 514.881 1.11929 516 2.5 516Z" fill="#5353E6"/>
<path d="M82.5 516C83.8807 516 85 514.881 85 513.5C85 512.119 83.8807 511 82.5 511C81.1193 511 80 512.119 80 513.5C80 514.881 81.1193 516 82.5 516Z" fill="#5353E6"/>
<path d="M162.5 516C163.881 516 165 514.881 165 513.5C165 512.119 163.881 511 162.5 511C161.119 511 160 512.119 160 513.5C160 514.881 161.119 516 162.5 516Z" fill="#5353E6"/>
<path d="M242.5 516C243.881 516 245 514.881 245 513.5C245 512.119 243.881 511 242.5 511C241.119 511 240 512.119 240 513.5C240 514.881 241.119 516 242.5 516Z" fill="#5353E6"/>
<path d="M322.5 516C323.881 516 325 514.881 325 513.5C325 512.119 323.881 511 322.5 511C321.119 511 320 512.119 320 513.5C320 514.881 321.119 516 322.5 516Z" fill="#5353E6"/>
<path d="M402.5 516C403.881 516 405 514.881 405 513.5C405 512.119 403.881 511 402.5 511C401.119 511 400 512.119 400 513.5C400 514.881 401.119 516 402.5 516Z" fill="#5353E6"/>
<path d="M482.5 516C483.881 516 485 514.881 485 513.5C485 512.119 483.881 511 482.5 511C481.119 511 480 512.119 480 513.5C480 514.881 481.119 516 482.5 516Z" fill="#5353E6"/>
<path d="M562.5 516C563.881 516 565 514.881 565 513.5C565 512.119 563.881 511 562.5 511C561.119 511 560 512.119 560 513.5C560 514.881 561.119 516 562.5 516Z" fill="#5353E6"/>
<path d="M642.5 516C643.881 516 645 514.881 645 513.5C645 512.119 643.881 511 642.5 511C641.119 511 640 512.119 640 513.5C640 514.881 641.119 516 642.5 516Z" fill="#5353E6"/>
<path d="M2.5 589C3.88071 589 5 587.881 5 586.5C5 585.119 3.88071 584 2.5 584C1.11929 584 0 585.119 0 586.5C0 587.881 1.11929 589 2.5 589Z" fill="#5353E6"/>
<path d="M82.5 589C83.8807 589 85 587.881 85 586.5C85 585.119 83.8807 584 82.5 584C81.1193 584 80 585.119 80 586.5C80 587.881 81.1193 589 82.5 589Z" fill="#5353E6"/>
<path d="M162.5 589C163.881 589 165 587.881 165 586.5C165 585.119 163.881 584 162.5 584C161.119 584 160 585.119 160 586.5C160 587.881 161.119 589 162.5 589Z" fill="#5353E6"/>
<path d="M242.5 589C243.881 589 245 587.881 245 586.5C245 585.119 243.881 584 242.5 584C241.119 584 240 585.119 240 586.5C240 587.881 241.119 589 242.5 589Z" fill="#5353E6"/>
<path d="M322.5 589C323.881 589 325 587.881 325 586.5C325 585.119 323.881 584 322.5 584C321.119 584 320 585.119 320 586.5C320 587.881 321.119 589 322.5 589Z" fill="#5353E6"/>
<path d="M402.5 589C403.881 589 405 587.881 405 586.5C405 585.119 403.881 584 402.5 584C401.119 584 400 585.119 400 586.5C400 587.881 401.119 589 402.5 589Z" fill="#5353E6"/>
<path d="M482.5 589C483.881 589 485 587.881 485 586.5C485 585.119 483.881 584 482.5 584C481.119 584 480 585.119 480 586.5C480 587.881 481.119 589 482.5 589Z" fill="#5353E6"/>
<path d="M562.5 589C563.881 589 565 587.881 565 586.5C565 585.119 563.881 584 562.5 584C561.119 584 560 585.119 560 586.5C560 587.881 561.119 589 562.5 589Z" fill="#5353E6"/>
<path d="M642.5 589C643.881 589 645 587.881 645 586.5C645 585.119 643.881 584 642.5 584C641.119 584 640 585.119 640 586.5C640 587.881 641.119 589 642.5 589Z" fill="#5353E6"/>
<path d="M2.5 662C3.88071 662 5 660.881 5 659.5C5 658.119 3.88071 657 2.5 657C1.11929 657 0 658.119 0 659.5C0 660.881 1.11929 662 2.5 662Z" fill="#5353E6"/>
<path d="M82.5 662C83.8807 662 85 660.881 85 659.5C85 658.119 83.8807 657 82.5 657C81.1193 657 80 658.119 80 659.5C80 660.881 81.1193 662 82.5 662Z" fill="#5353E6"/>
<path d="M162.5 662C163.881 662 165 660.881 165 659.5C165 658.119 163.881 657 162.5 657C161.119 657 160 658.119 160 659.5C160 660.881 161.119 662 162.5 662Z" fill="#5353E6"/>
<path d="M242.5 662C243.881 662 245 660.881 245 659.5C245 658.119 243.881 657 242.5 657C241.119 657 240 658.119 240 659.5C240 660.881 241.119 662 242.5 662Z" fill="#5353E6"/>
<path d="M322.5 662C323.881 662 325 660.881 325 659.5C325 658.119 323.881 657 322.5 657C321.119 657 320 658.119 320 659.5C320 660.881 321.119 662 322.5 662Z" fill="#5353E6"/>
<path d="M402.5 662C403.881 662 405 660.881 405 659.5C405 658.119 403.881 657 402.5 657C401.119 657 400 658.119 400 659.5C400 660.881 401.119 662 402.5 662Z" fill="#5353E6"/>
<path d="M482.5 662C483.881 662 485 660.881 485 659.5C485 658.119 483.881 657 482.5 657C481.119 657 480 658.119 480 659.5C480 660.881 481.119 662 482.5 662Z" fill="#5353E6"/>
<path d="M562.5 662C563.881 662 565 660.881 565 659.5C565 658.119 563.881 657 562.5 657C561.119 657 560 658.119 560 659.5C560 660.881 561.119 662 562.5 662Z" fill="#5353E6"/>
<path d="M642.5 662C643.881 662 645 660.881 645 659.5C645 658.119 643.881 657 642.5 657C641.119 657 640 658.119 640 659.5C640 660.881 641.119 662 642.5 662Z" fill="#5353E6"/>
<path d="M2.5 735C3.88071 735 5 733.881 5 732.5C5 731.119 3.88071 730 2.5 730C1.11929 730 0 731.119 0 732.5C0 733.881 1.11929 735 2.5 735Z" fill="#5353E6"/>
<path d="M82.5 735C83.8807 735 85 733.881 85 732.5C85 731.119 83.8807 730 82.5 730C81.1193 730 80 731.119 80 732.5C80 733.881 81.1193 735 82.5 735Z" fill="#5353E6"/>
<path d="M162.5 735C163.881 735 165 733.881 165 732.5C165 731.119 163.881 730 162.5 730C161.119 730 160 731.119 160 732.5C160 733.881 161.119 735 162.5 735Z" fill="#5353E6"/>
<path d="M242.5 735C243.881 735 245 733.881 245 732.5C245 731.119 243.881 730 242.5 730C241.119 730 240 731.119 240 732.5C240 733.881 241.119 735 242.5 735Z" fill="#5353E6"/>
<path d="M322.5 735C323.881 735 325 733.881 325 732.5C325 731.119 323.881 730 322.5 730C321.119 730 320 731.119 320 732.5C320 733.881 321.119 735 322.5 735Z" fill="#5353E6"/>
<path d="M402.5 735C403.881 735 405 733.881 405 732.5C405 731.119 403.881 730 402.5 730C401.119 730 400 731.119 400 732.5C400 733.881 401.119 735 402.5 735Z" fill="#5353E6"/>
<path d="M482.5 735C483.881 735 485 733.881 485 732.5C485 731.119 483.881 730 482.5 730C481.119 730 480 731.119 480 732.5C480 733.881 481.119 735 482.5 735Z" fill="#5353E6"/>
<path d="M562.5 735C563.881 735 565 733.881 565 732.5C565 731.119 563.881 730 562.5 730C561.119 730 560 731.119 560 732.5C560 733.881 561.119 735 562.5 735Z" fill="#5353E6"/>
<path d="M642.5 735C643.881 735 645 733.881 645 732.5C645 731.119 643.881 730 642.5 730C641.119 730 640 731.119 640 732.5C640 733.881 641.119 735 642.5 735Z" fill="#5353E6"/>
<path d="M722.5 735C723.881 735 725 733.881 725 732.5C725 731.119 723.881 730 722.5 730C721.119 730 720 731.119 720 732.5C720 733.881 721.119 735 722.5 735Z" fill="#2E3B67"/>
<path d="M2.5 808C3.88071 808 5 806.881 5 805.5C5 804.119 3.88071 803 2.5 803C1.11929 803 0 804.119 0 805.5C0 806.881 1.11929 808 2.5 808Z" fill="#2E3B67"/>
<path d="M82.5 808C83.8807 808 85 806.881 85 805.5C85 804.119 83.8807 803 82.5 803C81.1193 803 80 804.119 80 805.5C80 806.881 81.1193 808 82.5 808Z" fill="#2E3B67"/>
<path d="M162.5 808C163.881 808 165 806.881 165 805.5C165 804.119 163.881 803 162.5 803C161.119 803 160 804.119 160 805.5C160 806.881 161.119 808 162.5 808Z" fill="#2E3B67"/>
<path d="M242.5 808C243.881 808 245 806.881 245 805.5C245 804.119 243.881 803 242.5 803C241.119 803 240 804.119 240 805.5C240 806.881 241.119 808 242.5 808Z" fill="#2E3B67"/>
<path d="M322.5 808C323.881 808 325 806.881 325 805.5C325 804.119 323.881 803 322.5 803C321.119 803 320 804.119 320 805.5C320 806.881 321.119 808 322.5 808Z" fill="#2E3B67"/>
<path d="M402.5 808C403.881 808 405 806.881 405 805.5C405 804.119 403.881 803 402.5 803C401.119 803 400 804.119 400 805.5C400 806.881 401.119 808 402.5 808Z" fill="#2E3B67"/>
<path d="M482.5 808C483.881 808 485 806.881 485 805.5C485 804.119 483.881 803 482.5 803C481.119 803 480 804.119 480 805.5C480 806.881 481.119 808 482.5 808Z" fill="#2E3B67"/>
<path d="M562.5 808C563.881 808 565 806.881 565 805.5C565 804.119 563.881 803 562.5 803C561.119 803 560 804.119 560 805.5C560 806.881 561.119 808 562.5 808Z" fill="#2E3B67"/>
<path d="M642.5 808C643.881 808 645 806.881 645 805.5C645 804.119 643.881 803 642.5 803C641.119 803 640 804.119 640 805.5C640 806.881 641.119 808 642.5 808Z" fill="#2E3B67"/>
<path d="M722.5 808C723.881 808 725 806.881 725 805.5C725 804.119 723.881 803 722.5 803C721.119 803 720 804.119 720 805.5C720 806.881 721.119 808 722.5 808Z" fill="#2E3B67"/>
<path d="M2.5 881C3.88071 881 5 879.881 5 878.5C5 877.119 3.88071 876 2.5 876C1.11929 876 0 877.119 0 878.5C0 879.881 1.11929 881 2.5 881Z" fill="#2E3B67"/>
<path d="M82.5 881C83.8807 881 85 879.881 85 878.5C85 877.119 83.8807 876 82.5 876C81.1193 876 80 877.119 80 878.5C80 879.881 81.1193 881 82.5 881Z" fill="#2E3B67"/>
<path d="M162.5 881C163.881 881 165 879.881 165 878.5C165 877.119 163.881 876 162.5 876C161.119 876 160 877.119 160 878.5C160 879.881 161.119 881 162.5 881Z" fill="#2E3B67"/>
<path d="M242.5 881C243.881 881 245 879.881 245 878.5C245 877.119 243.881 876 242.5 876C241.119 876 240 877.119 240 878.5C240 879.881 241.119 881 242.5 881Z" fill="#2E3B67"/>
<path d="M322.5 881C323.881 881 325 879.881 325 878.5C325 877.119 323.881 876 322.5 876C321.119 876 320 877.119 320 878.5C320 879.881 321.119 881 322.5 881Z" fill="#2E3B67"/>
<path d="M402.5 881C403.881 881 405 879.881 405 878.5C405 877.119 403.881 876 402.5 876C401.119 876 400 877.119 400 878.5C400 879.881 401.119 881 402.5 881Z" fill="#2E3B67"/>
<path d="M482.5 881C483.881 881 485 879.881 485 878.5C485 877.119 483.881 876 482.5 876C481.119 876 480 877.119 480 878.5C480 879.881 481.119 881 482.5 881Z" fill="#2E3B67"/>
<path d="M562.5 881C563.881 881 565 879.881 565 878.5C565 877.119 563.881 876 562.5 876C561.119 876 560 877.119 560 878.5C560 879.881 561.119 881 562.5 881Z" fill="#2E3B67"/>
<path d="M642.5 881C643.881 881 645 879.881 645 878.5C645 877.119 643.881 876 642.5 876C641.119 876 640 877.119 640 878.5C640 879.881 641.119 881 642.5 881Z" fill="#2E3B67"/>
<path d="M722.5 881C723.881 881 725 879.881 725 878.5C725 877.119 723.881 876 722.5 876C721.119 876 720 877.119 720 878.5C720 879.881 721.119 881 722.5 881Z" fill="#2E3B67"/>
</svg>
